<svg xmlns="http://www.w3.org/2000/svg" width="1288" height="450" font-family="monospace" font-size="11">
<rect width="1288" height="450" fill="white"/>
<line x1="80" y1="330" x2="1268" y2="330" stroke="#ddd" stroke-width="1"/>
<text x="75" y="334" text-anchor="end" fill="#666">0ms</text>
<line x1="80" y1="255" x2="1268" y2="255" stroke="#ddd" stroke-width="1"/>
<text x="75" y="259" text-anchor="end" fill="#666">1169ms</text>
<line x1="80" y1="180" x2="1268" y2="180" stroke="#ddd" stroke-width="1"/>
<text x="75" y="184" text-anchor="end" fill="#666">2338ms</text>
<line x1="80" y1="105" x2="1268" y2="105" stroke="#ddd" stroke-width="1"/>
<text x="75" y="109" text-anchor="end" fill="#666">3507ms</text>
<line x1="80" y1="30" x2="1268" y2="30" stroke="#ddd" stroke-width="1"/>
<text x="75" y="34" text-anchor="end" fill="#666">4676ms</text>
<rect x="80" y="330" width="24" height="0" fill="#4e79a7"/>
<rect x="108" y="330" width="24" height="0" fill="#e15759"/>
<rect x="136" y="330" width="24" height="0" fill="#59a14f"/>
<rect x="164" y="330" width="24" height="0" fill="#f28e2b"/>
<text x="136" y="345" text-anchor="middle" transform="rotate(45 136 345)" fill="#333">0us_overhead</text>
<rect x="212" y="314" width="24" height="16" fill="#4e79a7"/>
<rect x="240" y="326" width="24" height="4" fill="#e15759"/>
<rect x="268" y="313" width="24" height="17" fill="#59a14f"/>
<rect x="296" y="325" width="24" height="5" fill="#f28e2b"/>
<text x="268" y="345" text-anchor="middle" transform="rotate(45 268 345)" fill="#333">100us_fold-heavy</text>
<rect x="344" y="315" width="24" height="15" fill="#4e79a7"/>
<rect x="372" y="326" width="24" height="4" fill="#e15759"/>
<rect x="400" y="315" width="24" height="15" fill="#59a14f"/>
<rect x="428" y="326" width="24" height="4" fill="#f28e2b"/>
<text x="400" y="345" text-anchor="middle" transform="rotate(45 400 345)" fill="#333">100us_graph-heavy</text>
<rect x="476" y="238" width="24" height="92" fill="#4e79a7"/>
<rect x="504" y="309" width="24" height="21" fill="#e15759"/>
<rect x="532" y="238" width="24" height="92" fill="#59a14f"/>
<rect x="560" y="310" width="24" height="20" fill="#f28e2b"/>
<text x="532" y="345" text-anchor="middle" transform="rotate(45 532 345)" fill="#333">100us_large500</text>
<rect x="608" y="329" width="24" height="1" fill="#4e79a7"/>
<rect x="636" y="329" width="24" height="1" fill="#e15759"/>
<rect x="664" y="329" width="24" height="1" fill="#59a14f"/>
<rect x="692" y="329" width="24" height="1" fill="#f28e2b"/>
<text x="664" y="345" text-anchor="middle" transform="rotate(45 664 345)" fill="#333">10us_light</text>
<rect x="740" y="133" width="24" height="197" fill="#4e79a7"/>
<rect x="768" y="271" width="24" height="59" fill="#e15759"/>
<rect x="796" y="30" width="24" height="300" fill="#59a14f"/>
<rect x="824" y="261" width="24" height="69" fill="#f28e2b"/>
<text x="796" y="345" text-anchor="middle" transform="rotate(45 796 345)" fill="#333">1ms_heavy</text>
<rect x="872" y="296" width="24" height="34" fill="#4e79a7"/>
<rect x="900" y="319" width="24" height="11" fill="#e15759"/>
<rect x="928" y="294" width="24" height="36" fill="#59a14f"/>
<rect x="956" y="315" width="24" height="15" fill="#f28e2b"/>
<text x="928" y="345" text-anchor="middle" transform="rotate(45 928 345)" fill="#333">200us_balanced</text>
<rect x="1004" y="326" width="24" height="4" fill="#4e79a7"/>
<rect x="1032" y="327" width="24" height="3" fill="#e15759"/>
<rect x="1060" y="326" width="24" height="4" fill="#59a14f"/>
<rect x="1088" y="327" width="24" height="3" fill="#f28e2b"/>
<text x="1060" y="345" text-anchor="middle" transform="rotate(45 1060 345)" fill="#333">200us_deep</text>
<rect x="1136" y="318" width="24" height="12" fill="#4e79a7"/>
<rect x="1164" y="327" width="24" height="3" fill="#e15759"/>
<rect x="1192" y="317" width="24" height="13" fill="#59a14f"/>
<rect x="1220" y="327" width="24" height="3" fill="#f28e2b"/>
<text x="1192" y="345" text-anchor="middle" transform="rotate(45 1192 345)" fill="#333">200us_io</text>
<rect x="80" y="425" width="12" height="12" fill="#4e79a7"/>
<text x="96" y="435" fill="#333">fused</text>
<rect x="220" y="425" width="12" height="12" fill="#e15759"/>
<text x="236" y="435" fill="#333">rayon</text>
<rect x="360" y="425" width="12" height="12" fill="#59a14f"/>
<text x="376" y="435" fill="#333">uio+fused</text>
<rect x="500" y="425" width="12" height="12" fill="#f28e2b"/>
<text x="516" y="435" fill="#333">uio+rayon</text>
</svg>